<svg xmlns="http://www.w3.org/2000/svg" width="74" height="60"><g id="Монтажная_область_1" data-name="Монтажная область 1"><circle id="_-e-Ellipse_2" data-name="-e-Ellipse 2" cx="56.5" cy="42.5" r="16.88" fill="#a3bbc8"/><path id="_-e-Shape_1" data-name="-e-Shape 1" d="M1554.64 1273h-57.28a3.367 3.367 0 00-3.36 3.36v41.14a3.367 3.367 0 003.36 3.36h21.7l-.88 7h-3.63a1.07 1.07 0 100 2.14h22.9a1.07 1.07 0 100-2.14h-3.63l-.88-7h21.7a3.367 3.367 0 003.36-3.36v-41.14a3.367 3.367 0 00-3.36-3.36zm-34.3 54.86l.88-7h9.56l.88 7h-11.32zm35.51-10.36a1.208 1.208 0 01-1.21 1.21h-57.28a1.208 1.208 0 01-1.21-1.21v-41.14a1.216 1.216 0 011.21-1.22h57.28a1.216 1.216 0 011.21 1.22v41.14zm-11.52-39.93h-44.67a1.073 1.073 0 00-1.08 1.07v35.43a1.073 1.073 0 001.08 1.07h3.43a1.07 1.07 0 100-2.14h-2.36v-33.29h43.6a1.07 1.07 0 000-2.14zm8.01 0h-3.43a1.07 1.07 0 100 2.14h2.36V1313h-43.6a1.07 1.07 0 000 2.14h44.67a1.073 1.073 0 001.08-1.07v-35.43a1.073 1.073 0 00-1.08-1.07zm-6.87 5.72a3.359 3.359 0 00-2.97 4.93l-8.6 9.09a3.361 3.361 0 00-3.72.61l-7.35-3.88a3.272 3.272 0 00.04-.54 3.365 3.365 0 10-6.4 1.45l-8.4 8.14a3.349 3.349 0 101.49 1.53l8.41-8.14a3.325 3.325 0 003.85-.55l7.35 3.88a3.313 3.313 0 00-.04.55 3.365 3.365 0 106.33-1.58l8.6-9.09a3.358 3.358 0 101.41-6.4zm-38.94 24a1.215 1.215 0 110-2.43 1.215 1.215 0 010 2.43zm12.98-12.58a1.21 1.21 0 111.22-1.21 1.216 1.216 0 01-1.22 1.21zm12.98 6.86a1.215 1.215 0 111.22-1.21 1.216 1.216 0 01-1.22 1.21zm12.98-13.71a1.215 1.215 0 111.22-1.22 1.225 1.225 0 01-1.22 1.22zm0 4.57a1.071 1.071 0 00-1.07 1.07v16a1.075 1.075 0 002.15 0v-16a1.073 1.073 0 00-1.08-1.07zm-25.96 6.86a1.065 1.065 0 00-1.07 1.07v9.14a1.07 1.07 0 002.14 0v-9.14a1.065 1.065 0 00-1.07-1.07zm12.98 6.85a1.071 1.071 0 00-1.07 1.07v2.29a1.07 1.07 0 002.14 0v-2.29a1.071 1.071 0 00-1.07-1.07z" transform="translate(-1494 -1273)" fill="#243f4d" fill-rule="evenodd"/></g></svg>