<svg xmlns="http://www.w3.org/2000/svg" width="73" height="52"><g id="Монтажная_область_2" data-name="Монтажная область 2"><circle id="_-e-Ellipse_2" data-name="-e-Ellipse 2" cx="55.5" cy="34.5" r="16.88" fill="#a3bbc8"/><path id="_-e-Shape_1" data-name="-e-Shape 1" d="M1853.52 1297.96l-1.66-6.55a1 1 0 00.8-.97v-1.06a4.193 4.193 0 00-4.21-4.16h-7.55v-2.17a2.064 2.064 0 00-2.07-2.05h-38.48a2.057 2.057 0 00-2.07 2.05V1301a1 1 0 002 0v-17.95a.068.068 0 01.07-.07h38.48a.067.067 0 01.06.07V1301a1.005 1.005 0 002.01 0v-1.12h11.82a3.278 3.278 0 013.12 2.24h-3.12a1 1 0 00-1 .99v2.11a3.133 3.133 0 003.14 3.11h1.14v4.35h-2.62a6.375 6.375 0 00-12 0h-.48v-7.46a1.005 1.005 0 00-2.01 0v7.46h-20.79a6.368 6.368 0 00-11.99 0h-5.76a.067.067 0 01-.07-.06v-2.18h4.34a.99.99 0 100-1.98H1795a.99.99 0 100 1.98h3.28v2.18a2.055 2.055 0 002.07 2.04h5.41v.07a6.345 6.345 0 0012.69 0v-.07h22.58v.07a6.345 6.345 0 0012.69 0v-.07h3.28a.994.994 0 001-.99v-10.56a5.238 5.238 0 00-4.48-5.15zm-12.62-10.76h7.55a2.2 2.2 0 012.2 2.18v.07h-9.75v-2.25zm0 10.7v-6.47h8.9l1.64 6.47h-10.54zm-28.8 21.12a4.29 4.29 0 114.35-4.29 4.326 4.326 0 01-4.35 4.29zm35.28 0a4.29 4.29 0 114.34-4.29 4.319 4.319 0 01-4.34 4.29zm8.62-12.67h-1.14a1.137 1.137 0 01-1.14-1.13v-1.12h2.28v2.25zm-43.9 6.33a2.05 2.05 0 102.08 2.05 2.064 2.064 0 00-2.08-2.05zm35.28 0a2.05 2.05 0 102.07 2.05 2.064 2.064 0 00-2.07-2.05zm-11.76-4.22h-14.96a.99.99 0 100 1.98h14.96a.99.99 0 100-1.98zm-25.65-4.23h-12.83a.99.99 0 100 1.98h12.83a.99.99 0 100-1.98zm18.88-13.44a1.027 1.027 0 00-1.42 0l-8.91 8.81-4.64-4.58a1.008 1.008 0 00-1.42 0 .984.984 0 000 1.4l5.35 5.28a1.007 1.007 0 00.71.29 1.042 1.042 0 00.71-.29l9.62-9.51a.984.984 0 000-1.4z" transform="translate(-1794 -1281)" fill="#243f4d" fill-rule="evenodd"/></g></svg>