<?xml version="1.0" encoding="UTF-8"?>
<svg xmlns="http://www.w3.org/2000/svg" xmlns:xlink="http://www.w3.org/1999/xlink" width="14pt" height="14pt" viewBox="0 0 14 14" version="1.1">
<g id="surface1">
<path d="M 13.777344 6.457031 L 8.71875 1.398438 C 8.574219 1.253906 8.382812 1.175781 8.179688 1.175781 C 7.972656 1.175781 7.78125 1.253906 7.636719 1.398438 L 7.175781 1.859375 C 7.035156 2.003906 6.953125 2.195312 6.953125 2.402344 C 6.953125 2.605469 7.035156 2.804688 7.175781 2.949219 L 10.128906 5.90625 L 0.757812 5.90625 C 0.332031 5.90625 0 6.234375 0 6.660156 L 0 7.308594 C 0 7.730469 0.332031 8.09375 0.757812 8.09375 L 10.160156 8.09375 L 7.175781 11.066406 C 7.035156 11.210938 6.953125 11.398438 6.953125 11.605469 C 6.953125 11.808594 7.035156 12 7.175781 12.144531 L 7.636719 12.601562 C 7.78125 12.746094 7.972656 12.824219 8.179688 12.824219 C 8.382812 12.824219 8.574219 12.742188 8.71875 12.597656 L 13.777344 7.542969 C 13.921875 7.398438 14 7.207031 14 7 C 14 6.792969 13.921875 6.601562 13.777344 6.457031 Z M 13.777344 6.457031" fill="#fff"/>
</g>
</svg>
