<svg xmlns="http://www.w3.org/2000/svg" width="43" height="42"><path fill="#A3BBC8" fill-rule="evenodd" d="M41.984 8.578L28.765 29.025a8.533 8.533 0 01.824 3.67c0 4.673-3.743 8.475-8.342 8.475-4.601 0-8.344-3.802-8.344-8.475 0-1.313.296-2.559.825-3.671L.509 8.578a.917.917 0 01.116-1.139l6.318-6.418a.888.888 0 01.631-.266h27.345c.237 0 .464.096.631.266l6.319 6.418a.92.92 0 01.115 1.139zM21.247 39.357c3.615 0 6.557-2.988 6.557-6.662 0-3.672-2.942-6.661-6.557-6.661-3.617 0-6.559 2.989-6.559 6.661 0 3.674 2.942 6.662 6.559 6.662zm.013-15.136l9.849-15.234H11.383l9.85 15.234h.027zm-6.481 3.127a8.35 8.35 0 014.477-2.883L9.247 8.987H2.909l11.87 18.361zm19.77-24.78H7.943L3.41 7.174h35.674l-4.535-4.606zm-1.304 6.419L23.237 24.465a8.346 8.346 0 014.477 2.884l11.87-18.362h-6.339zm-13.114 20.39h1.419a.9.9 0 01.892.908v5.808a.9.9 0 01-.892.906.9.9 0 01-.893-.906v-4.902h-.526a.9.9 0 01-.892-.906.9.9 0 01.892-.908z"/></svg>