<?xml version="1.0" standalone="no"?>
<!DOCTYPE svg PUBLIC "-//W3C//DTD SVG 20010904//EN"
 "http://www.w3.org/TR/2001/REC-SVG-20010904/DTD/svg10.dtd">
<svg version="1.0" xmlns="http://www.w3.org/2000/svg"
 width="640.000000pt" height="640.000000pt" viewBox="0 0 640.000000 640.000000"
 preserveAspectRatio="xMidYMid meet">
<metadata>
Created by potrace 1.14, written by Peter Selinger 2001-2017
</metadata>
<g transform="translate(0.000000,640.000000) scale(0.100000,-0.100000)"
fill="#000000" stroke="none">
<path d="M2995 4507 c-27 -4 -117 -10 -200 -12 -130 -4 -185 -8 -205 -15 -5
-2 -66 -1 -145 1 -16 1 -32 0 -35 -1 -3 -1 -18 -3 -35 -4 -16 -2 -48 -8 -70
-14 -22 -6 -92 -11 -155 -11 -105 0 -148 -4 -190 -16 -8 -3 -89 -7 -180 -9
-91 -3 -237 -7 -325 -10 -252 -8 -281 -8 -435 -6 -126 3 -153 0 -205 -18 l-60
-21 -21 20 c-43 41 -155 59 -234 38 -50 -13 -95 -60 -115 -119 -22 -66 -24
-81 -14 -107 5 -13 5 -24 1 -24 -4 -1 -23 -3 -42 -5 -104 -10 -141 -16 -135
-22 4 -4 11 -8 16 -8 5 -1 13 -2 18 -3 7 -1 47 -51 134 -169 9 -12 18 -73 21
-147 l1 -30 -65 0 c-118 -1 -192 -32 -253 -108 -68 -84 -78 -198 -26 -303 31
-61 74 -96 151 -124 l28 -9 -5 -83 c-3 -46 -7 -123 -10 -173 -8 -116 -9 -764
-2 -771 3 -3 -3 -24 -14 -47 -22 -50 -24 -93 -4 -127 31 -56 45 -94 45 -129 0
-35 1 -36 40 -37 37 -1 40 1 55 39 9 22 13 52 10 66 -5 26 -15 78 -17 90 0 3
1 8 2 11 1 3 3 13 5 22 7 39 27 87 40 98 7 6 46 11 87 11 140 0 138 1 138 -21
0 -11 9 -36 21 -57 12 -20 22 -57 24 -82 2 -42 4 -46 31 -48 53 -4 59 7 58
111 l-1 94 1181 0 c650 0 1186 1 1191 2 6 1 15 1 20 0 6 -1 585 -2 1288 -2
l1278 -1 -7 -82 c-4 -57 -3 -89 6 -105 8 -14 8 -20 1 -16 -6 4 -11 3 -11 -1 0
-5 -1092 -9 -2427 -10 -1336 0 -2439 -4 -2453 -7 -14 -4 -40 -9 -59 -12 -40
-7 -83 -32 -75 -45 3 -5 -2 -9 -10 -9 -9 0 -16 -4 -16 -9 0 -5 26 -10 58 -9
44 0 371 -1 497 -1 11 0 351 0 755 0 404 0 760 0 790 -1 81 -4 2938 -3 3050 1
52 1 106 5 120 9 l25 6 -25 14 c-14 8 -34 15 -45 17 -10 2 -22 8 -26 14 -3 6
-10 11 -15 11 -41 2 -53 20 -49 78 3 39 15 75 54 149 5 10 22 14 52 13 57 -3
126 -2 141 1 17 3 58 -76 63 -120 2 -21 -1 -64 -8 -96 -10 -51 -9 -62 7 -91
16 -30 23 -34 57 -33 39 1 39 1 39 41 0 26 11 61 30 96 34 65 37 102 11 153
-13 26 -17 47 -13 65 10 36 7 582 -3 752 -11 181 -12 232 -8 250 2 8 25 24 51
34 96 40 146 118 149 238 2 72 -12 138 -29 138 -4 0 -8 5 -8 10 0 16 -51 69
-87 91 -46 29 -117 45 -186 44 -64 -2 -77 7 -53 34 9 10 16 21 16 25 0 7 27
37 147 163 28 30 67 79 87 108 l35 53 -82 0 c-45 -1 -104 -7 -130 -15 -27 -8
-51 -12 -54 -10 -2 3 -6 27 -8 54 -8 122 -52 197 -131 223 -69 23 -228 -9
-255 -51 -3 -5 -25 -3 -50 6 -81 29 -89 29 -369 26 -63 0 -185 1 -270 4 -85 3
-234 8 -330 11 -96 3 -186 8 -200 11 -14 3 -32 8 -40 10 -8 2 -67 3 -130 4
-63 0 -131 5 -150 9 -44 11 -149 24 -175 21 -47 -5 -123 -3 -155 4 -19 4 -102
8 -185 9 -82 1 -156 5 -163 10 -12 7 -87 8 -214 3 -29 -2 -57 -1 -62 2 -16 7
-108 6 -161 -2z"/>
</g>
</svg>
