<svg xmlns="http://www.w3.org/2000/svg" width="20" height="20" viewBox="0 0 15 15"><path d="M4.477 4.617a.479.479 0 01-.47-.484v-1.79c0-.273.22-.488.47-.488a.48.48 0 01.468.489v1.773c0 .278-.203.5-.468.5zm5.726 0a.486.486 0 01-.48-.484v-1.79c0-.273.214-.488.48-.488.262 0 .469.227.469.489v1.773c0 .278-.207.5-.469.5zm1.649 7.656V5.68H2.738v6.593zM1.18 3.953c0-.656.504-1.18 1.133-1.18h1.523v.524c-.195.18-.32.453-.32.738 0 .547.421.988.949.988.527 0 .953-.441.953-.988a1 1 0 00-.324-.738v-.524H9.55v.524c-.196.18-.32.453-.32.738 0 .547.421.988.949.988.527 0 .949-.441.949-.988a.998.998 0 00-.32-.738v-.524h1.441c.633 0 1.137.524 1.137 1.18v8.203c0 .653-.504 1.176-1.137 1.176H2.29c-.63 0-1.134-.523-1.134-1.176V3.953zm2.68 6.262h1.316v1.367H3.859zm0-1.93h1.316v1.371H3.859zm1.855 0H7.03v1.371H5.715zm1.855 0h1.317v1.371H7.57zm1.852 0h1.32v1.371h-1.32zm0-1.93h1.32v1.372h-1.32zm-1.852 0h1.317v1.372H7.57zm-1.855 0H7.03v1.372H5.715zm0 3.86H7.03v1.367H5.715zm0 0" id="surface1"/></svg>