<?xml version="1.0" encoding="UTF-8"?>
<svg xmlns="http://www.w3.org/2000/svg" xmlns:xlink="http://www.w3.org/1999/xlink" width="15pt" height="15pt" viewBox="0 0 15 15" version="1.1">
<g id="surface1">
<path style=" stroke:none;fill-rule:nonzero;fill:rgb(0%,0%,0%);fill-opacity:1;" d="M 4.476562 4.617188 C 4.214844 4.617188 4.007812 4.394531 4.007812 4.132812 L 4.007812 2.34375 C 4.007812 2.070312 4.226562 1.855469 4.476562 1.855469 C 4.742188 1.855469 4.945312 2.082031 4.945312 2.34375 L 4.945312 4.117188 C 4.945312 4.394531 4.742188 4.617188 4.476562 4.617188 Z M 10.203125 4.617188 C 9.9375 4.617188 9.722656 4.394531 9.722656 4.132812 L 9.722656 2.34375 C 9.722656 2.070312 9.9375 1.855469 10.203125 1.855469 C 10.464844 1.855469 10.671875 2.082031 10.671875 2.34375 L 10.671875 4.117188 C 10.671875 4.394531 10.464844 4.617188 10.203125 4.617188 Z M 11.851562 12.273438 L 11.851562 5.679688 L 2.738281 5.679688 L 2.738281 12.273438 Z M 1.179688 3.953125 C 1.179688 3.296875 1.683594 2.773438 2.3125 2.773438 L 3.835938 2.773438 L 3.835938 3.296875 C 3.640625 3.476562 3.515625 3.75 3.515625 4.035156 C 3.515625 4.582031 3.9375 5.023438 4.464844 5.023438 C 4.992188 5.023438 5.417969 4.582031 5.417969 4.035156 C 5.417969 3.738281 5.289062 3.476562 5.09375 3.296875 L 5.09375 2.773438 L 9.550781 2.773438 L 9.550781 3.296875 C 9.355469 3.476562 9.230469 3.75 9.230469 4.035156 C 9.230469 4.582031 9.652344 5.023438 10.179688 5.023438 C 10.707031 5.023438 11.128906 4.582031 11.128906 4.035156 C 11.128906 3.738281 11.003906 3.476562 10.808594 3.296875 L 10.808594 2.773438 L 12.25 2.773438 C 12.882812 2.773438 13.386719 3.296875 13.386719 3.953125 L 13.386719 12.15625 C 13.386719 12.808594 12.882812 13.332031 12.25 13.332031 L 2.289062 13.332031 C 1.660156 13.332031 1.15625 12.808594 1.15625 12.15625 L 1.15625 3.953125 Z M 3.859375 10.214844 L 5.175781 10.214844 L 5.175781 11.582031 L 3.859375 11.582031 Z M 3.859375 8.285156 L 5.175781 8.285156 L 5.175781 9.65625 L 3.859375 9.65625 Z M 5.714844 8.285156 L 7.03125 8.285156 L 7.03125 9.65625 L 5.714844 9.65625 Z M 7.570312 8.285156 L 8.886719 8.285156 L 8.886719 9.65625 L 7.570312 9.65625 Z M 9.421875 8.285156 L 10.742188 8.285156 L 10.742188 9.65625 L 9.421875 9.65625 Z M 9.421875 6.355469 L 10.742188 6.355469 L 10.742188 7.726562 L 9.421875 7.726562 Z M 7.570312 6.355469 L 8.886719 6.355469 L 8.886719 7.726562 L 7.570312 7.726562 Z M 5.714844 6.355469 L 7.03125 6.355469 L 7.03125 7.726562 L 5.714844 7.726562 Z M 5.714844 10.214844 L 7.03125 10.214844 L 7.03125 11.582031 L 5.714844 11.582031 Z M 5.714844 10.214844 "/>
</g>
</svg>
