<svg xmlns="http://www.w3.org/2000/svg">
    <symbol id="arrow" viewBox="0 0 22 9" width="22" height="9">
        <path d="M535.3,654.472h16.948l-0.1,2.857a0.292,0.292,0,0,0,0,.41l0.172,0.172a0.28,0.28,0,0,0,.2.086,0.285,0.285,0,0,0,.2-0.084l4.193-4.211A0.292,0.292,0,0,0,557,653.5a0.283,0.283,0,0,0-.084-0.2l-4.193-4.213a0.289,0.289,0,0,0-.407,0l-0.172.173a0.287,0.287,0,0,0-.084.2,0.278,0.278,0,0,0,.084.2l0.113,2.865H535.292a0.3,0.3,0,0,0-.292.295v1.37A0.292,0.292,0,0,0,535.3,654.472Z" transform="translate(-535 -649)"/>   
    </symbol>

    <symbol id="search" viewBox="0 0 15.28 15.281" width="15.28" height="15.281">
        <path d="M1547.7,72.076a0.617,0.617,0,0,1,.75.485,2.583,2.583,0,0,0,.78,1.489,3.036,3.036,0,0,0,1.49.777,0.636,0.636,0,0,1,.49.743,0.649,0.649,0,0,1-.72.515,4.21,4.21,0,0,1-2.14-1.13,4.164,4.164,0,0,1-1.13-2.136A0.6,0.6,0,0,1,1547.7,72.076ZM1550.98,66a6.267,6.267,0,0,1,6.28,6.257,6.136,6.136,0,0,1-.57,2.6l2.34,2.036c1.7,1.746.74,3.266,0.29,3.717-0.42.454-1.99,1.414-3.73-.292l-2.06-2.35A6.261,6.261,0,1,1,1550.98,66Zm5.55,13.517a1.352,1.352,0,0,0,1.88.226,1.313,1.313,0,0,0-.23-1.874l-2.16-1.88a6.236,6.236,0,0,1-1.37,1.34Zm-5.55-2.312a4.948,4.948,0,1,0-4.97-4.948A4.963,4.963,0,0,0,1550.98,77.2Z" transform="translate(-1544.72 -66)"/>
    </symbol>

    <symbol id="like" viewBox="0 0 17.87 15.531" width="17.87" height="15.531">
        <path d="M1648.91,86.245a0.731,0.731,0,0,1-.28-0.056c-0.35-.15-8.65-3.749-8.65-10.76a28.181,28.181,0,0,0,13.05-4.707,4.817,4.817,0,0,1,4.81,4.684c0,7.034-8.29,10.634-8.65,10.783A0.7,0.7,0,0,1,1648.91,86.245Zm-4.11-14.138a3.427,3.427,0,0,0-3.41,3.346c0,5.407,6.13,8.662,7.52,9.334,1.4-.672,7.52-3.93,7.52-9.358a3.406,3.406,0,0,0-6.81.024,0.709,0.709,0,0,1-.71.669h0a0.694,0.694,0,0,1-.7-0.669A3.427,3.427,0,0,0,1644.8,72.106Z" transform="translate(-1639.97 -70.719)"/>
    </symbol>

    <symbol id="cart" viewBox="0 0 18.94 16.969" width="18.94" height="16.969">
        <path d="M1721.53,85.978a2.073,2.073,0,1,1,0-4.147h0a2.056,2.056,0,0,1,1.46.6,2.03,2.03,0,0,1,.61,1.466A2.071,2.071,0,0,1,1721.53,85.978Zm0-2.963h0a0.889,0.889,0,1,0,.34,1.71,0.9,0.9,0,0,0,.55-0.824,0.92,0.92,0,0,0-.26-0.629A0.9,0.9,0,0,0,1721.53,83.015Zm8.39,2.963a2.045,2.045,0,0,1-1.46-.607,2.068,2.068,0,0,1,1.46-3.54h0a1.953,1.953,0,0,1,1.47.6,2.085,2.085,0,0,1-.67,3.383A2.093,2.093,0,0,1,1729.92,85.978Zm0-2.963h0a0.978,0.978,0,0,0-.82.548,0.887,0.887,0,0,0,1.16,1.161,0.891,0.891,0,0,0,.29-1.452A0.9,0.9,0,0,0,1729.92,83.015Zm-11.27.164a0.562,0.562,0,0,1-.25-0.056,0.59,0.59,0,0,1-.29-0.787,3.686,3.686,0,0,1,3.05-2.151l-1.05-5.391a0.591,0.591,0,1,1,1.16-.228l1.09,5.578h9.43l1.8-6.771h-13.3a4.346,4.346,0,0,1-4.28-3.693,0.587,0.587,0,0,1,.49-0.673,0.6,0.6,0,0,1,.68.5,3.159,3.159,0,0,0,3.11,2.682h14.07a0.582,0.582,0,0,1,.47.232,0.594,0.594,0,0,1,.11.513l-2.13,7.956a0.59,0.59,0,0,1-.57.44h-10.36a0.03,0.03,0,0,0-.02,0,2.66,2.66,0,0,0-2.68,1.51A0.586,0.586,0,0,1,1718.65,83.178Z" transform="translate(-1716 -69)"/>
    </symbol>

    <symbol id="dots" viewBox="0 0 20.03 20.031" width="20.03" height="20.031">
        <path d="M1813.15,67.881a2.146,2.146,0,1,1,2.14-2.145A2.145,2.145,0,0,1,1813.15,67.881Zm0,7.869a2.146,2.146,0,1,1,2.14-2.147A2.146,2.146,0,0,1,1813.15,75.75Zm0,7.868a2.146,2.146,0,1,1,2.14-2.146A2.145,2.145,0,0,1,1813.15,83.618Zm7.86-15.737a2.146,2.146,0,1,1,2.15-2.145A2.143,2.143,0,0,1,1821.01,67.881Zm0,7.869a2.146,2.146,0,1,1,2.15-2.147A2.144,2.144,0,0,1,1821.01,75.75Zm0,7.868a2.146,2.146,0,1,1,2.15-2.146A2.143,2.143,0,0,1,1821.01,83.618Zm7.87-15.737a2.146,2.146,0,1,1,2.15-2.145A2.143,2.143,0,0,1,1828.88,67.881Zm0,7.869a2.146,2.146,0,1,1,2.15-2.147A2.144,2.144,0,0,1,1828.88,75.75Zm0,7.868a2.146,2.146,0,1,1,2.15-2.146A2.143,2.143,0,0,1,1828.88,83.618Z" transform="translate(-1811 -63.594)"/>
    </symbol>

    <symbol id="card" viewBox="0 0 20 20" width="20" height="20">
        <path d="M759.45,1579.8l-4.588-4.59a8.827,8.827,0,0,1-2.651,2.65l4.588,4.59A1.874,1.874,0,0,0,759.45,1579.8Zm-4.45-9.3a7.5,7.5,0,1,0-7.5,7.5A7.5,7.5,0,0,0,755,1570.5Zm-7.5,5.62a5.625,5.625,0,1,1,5.625-5.62A5.628,5.628,0,0,1,747.5,1576.12Zm-4.375-5.62h1.25a3.135,3.135,0,0,1,3.125-3.13v-1.25A4.386,4.386,0,0,0,743.125,1570.5Z" transform="translate(-740 -1563)"/>
    </symbol>

    <symbol id="to-cart" viewBox="0 0 22 20" width="22" height="20">
        <path d="M800.814,1564.63h2.333l3.323,12.04a0.812,0.812,0,0,0,.787.59h10.214a0.821,0.821,0,0,0,.746-0.48l3.717-8.56a0.836,0.836,0,0,0-.068-0.78,0.813,0.813,0,0,0-.678-0.37H809.9a0.82,0.82,0,0,0,0,1.64H819.94l-3.011,6.92h-9.062l-3.323-12.03a0.808,0.808,0,0,0-.787-0.6h-2.943A0.815,0.815,0,0,0,800.814,1564.63Zm5.67,18.37a1.85,1.85,0,1,0-1.845-1.85A1.85,1.85,0,0,0,806.484,1583Zm11.53,0h0.135A1.907,1.907,0,1,0,818.014,1583Z" transform="translate(-800 -1563)"/>
    </symbol>

    <symbol id="to-favorite" viewBox="0 0 22 18" width="22" height="18">
        <path d="M882.99,1569.82a6.208,6.208,0,0,0-1.849-4.1A5.871,5.871,0,0,0,877,1564c-2.311,0-3.948,1.78-4.827,2.74a2.156,2.156,0,0,1-.156.17l-0.083-.09c-0.8-.92-2.476-2.82-4.938-2.82a5.873,5.873,0,0,0-4.139,1.72,6.208,6.208,0,0,0-1.849,4.1,6.845,6.845,0,0,0,1.271,4.34,29.307,29.307,0,0,0,4.763,4.75c1.705,1.41,3.95,3.09,4.965,3.09,1.032,0,3.269-1.68,4.965-3.09a29.234,29.234,0,0,0,4.746-4.75A6.935,6.935,0,0,0,882.99,1569.82Zm-2.376,3.61a27,27,0,0,1-4.431,4.42c-2.406,2-3.831,2.79-4.172,2.82-0.342-.03-1.77-0.83-4.188-2.84a26.78,26.78,0,0,1-4.437-4.4,5.6,5.6,0,0,1-1.054-3.54,4.807,4.807,0,0,1,4.666-4.57c1.863,0,3.216,1.54,3.943,2.37a1.52,1.52,0,0,0,1.059.76,1.731,1.731,0,0,0,1.151-.81c0.794-.87,2.122-2.32,3.851-2.32a4.807,4.807,0,0,1,4.666,4.57A5.528,5.528,0,0,1,880.614,1573.43Z" transform="translate(-861 -1564)"/>
    </symbol>

    <symbol id="play-video" viewBox="0 0 127 127" width="127" height="127">
        <circle class="cls-1" cx="63.5" cy="63.5" r="63.5" fill="#a3bbc8" opacity= "0.4"/>
        <circle class="cls-2" cx="63" cy="63" r="49" fill="#a3bbc8"/>
        <path d="M970.684,3900.74l-16.044,9.8a3.228,3.228,0,0,1-3.062.14,2.685,2.685,0,0,1-1.579-2.39V3888.7a2.685,2.685,0,0,1,1.579-2.39,3.258,3.258,0,0,1,3.062.15l16.044,9.79A2.666,2.666,0,0,1,972,3898.5,2.638,2.638,0,0,1,970.684,3900.74Z" transform="translate(-897 -3836)" fill = "#fff"/>
    </symbol>

    <symbol id="grid" viewBox="0 0 15 15" width="15" height="15">
        <path d="M855,613.75h3.75V610H855v3.75ZM860.625,625h3.75v-3.75h-3.75V625ZM855,625h3.75v-3.75H855V625Zm0-5.625h3.75v-3.75H855v3.75Zm5.625,0h3.75v-3.75h-3.75v3.75ZM866.25,610v3.75H870V610h-3.75Zm-5.625,3.75h3.75V610h-3.75v3.75Zm5.625,5.625H870v-3.75h-3.75v3.75Zm0,5.625H870v-3.75h-3.75V625Z" transform="translate(-855 -610)"/>
    </symbol>

    <symbol id="list" viewBox="0 0 20 15" width="20" height="15">
        <path d="M885.007,610h4.422v4.172h-4.422V610Zm5.828,0h14.159v4.172H890.835V610Zm-5.828,5.413h4.422v4.172h-4.422v-4.172Zm5.828,0h14.159v4.172H890.835v-4.172Zm-5.828,5.414h4.422V625h-4.422v-4.171Zm5.828,0h14.159V625H890.835v-4.171Z" transform="translate(-885 -610)"/>
    </symbol>

    <symbol id="filter" viewBox="0 0 32 32" width="32" height="32">
        <g>
        <path d="M28,9H11a1,1,0,0,1,0-2H28a1,1,0,0,1,0,2Z"/>
        <path d="M7,9H4A1,1,0,0,1,4,7H7A1,1,0,0,1,7,9Z"/>
        <path d="M21,17H4a1,1,0,0,1,0-2H21a1,1,0,0,1,0,2Z"/>
        <path d="M11,25H4a1,1,0,0,1,0-2h7a1,1,0,0,1,0,2Z"/>
        <path d="M9,11a3,3,0,1,1,3-3A3,3,0,0,1,9,11ZM9,7a1,1,0,1,0,1,1A1,1,0,0,0,9,7Z"/>
        <path d="M23,19a3,3,0,1,1,3-3A3,3,0,0,1,23,19Zm0-4a1,1,0,1,0,1,1A1,1,0,0,0,23,15Z"/>
        <path d="M13,27a3,3,0,1,1,3-3A3,3,0,0,1,13,27Zm0-4a1,1,0,1,0,1,1A1,1,0,0,0,13,23Z"/>
        <path d="M28,17H25a1,1,0,0,1,0-2h3a1,1,0,0,1,0,2Z"/>
        <path d="M28,25H15a1,1,0,0,1,0-2H28a1,1,0,0,1,0,2Z"/>
    </g>
    </symbol>

    <symbol id="up" viewBox="0 0 32 32" width="32" height="32" fill="#414141">
        <path d="M 29.824219 7.960938 C 28.394531 5.511719 26.453125 3.574219 24.007812 2.144531 C 21.558594 0.714844 18.882812 0 15.984375 0 C 13.082031 0 10.410156 0.714844 7.960938 2.144531 C 5.511719 3.574219 3.574219 5.511719 2.144531 7.960938 C 0.714844 10.410156 0 13.082031 0 15.984375 C 0 18.882812 0.714844 21.554688 2.144531 24.003906 C 3.574219 26.453125 5.511719 28.394531 7.960938 29.824219 C 10.410156 31.25 13.082031 31.964844 15.984375 31.964844 C 18.882812 31.964844 21.558594 31.25 24.007812 29.824219 C 26.453125 28.394531 28.394531 26.453125 29.824219 24.003906 C 31.25 21.558594 31.964844 18.882812 31.964844 15.984375 C 31.964844 13.082031 31.25 10.410156 29.824219 7.960938 Z M 26.347656 16.898438 L 24.453125 18.792969 C 24.191406 19.054688 23.878906 19.1875 23.515625 19.1875 C 23.15625 19.1875 22.84375 19.054688 22.582031 18.792969 L 18.648438 14.859375 L 18.648438 25.304688 C 18.648438 25.667969 18.515625 25.980469 18.25 26.242188 C 17.988281 26.507812 17.675781 26.636719 17.316406 26.636719 L 14.652344 26.636719 C 14.289062 26.636719 13.976562 26.507812 13.714844 26.242188 C 13.453125 25.980469 13.320312 25.667969 13.320312 25.304688 L 13.320312 14.859375 L 9.386719 18.792969 C 9.136719 19.042969 8.824219 19.167969 8.449219 19.167969 C 8.074219 19.167969 7.761719 19.042969 7.511719 18.792969 L 5.617188 16.898438 C 5.371094 16.648438 5.246094 16.335938 5.246094 15.960938 C 5.246094 15.585938 5.367188 15.277344 5.617188 15.027344 L 15.046875 5.597656 C 15.296875 5.347656 15.609375 5.222656 15.984375 5.222656 C 16.359375 5.222656 16.671875 5.347656 16.917969 5.597656 L 26.347656 15.027344 C 26.597656 15.273438 26.722656 15.585938 26.722656 15.960938 C 26.722656 16.335938 26.597656 16.648438 26.347656 16.898438 Z M 26.347656 16.898438 "/>
    </symbol>

    <symbol id="inst" viewBox="0 0 18 18" width="18" height="18">
        <path d="M16.908,13.563 C16.375,15.523 15.095,16.683 13.111,17.002 C12.369,17.121 10.366,17.193 8.367,17.193 C6.320,17.193 4.276,17.118 3.588,16.939 C1.638,16.435 0.474,15.165 0.164,13.190 C-0.067,11.739 -0.091,4.999 0.328,3.536 C0.874,1.630 2.147,0.510 4.075,0.193 C4.949,0.050 6.658,-0.001 8.385,-0.001 C9.990,-0.001 11.609,0.043 12.584,0.097 C13.764,0.159 14.845,0.539 15.723,1.381 C16.559,2.182 16.987,3.183 17.095,4.316 C17.223,5.669 17.306,12.064 16.908,13.563 ZM15.547,4.461 C15.393,2.948 14.468,1.954 12.972,1.719 C12.231,1.607 10.447,1.557 8.672,1.557 C6.960,1.557 5.256,1.604 4.506,1.685 C3.006,1.857 1.998,2.783 1.759,4.275 C1.512,5.855 1.514,11.767 1.699,12.955 C1.890,14.191 2.588,15.040 3.821,15.385 C4.489,15.573 6.487,15.639 8.447,15.639 C10.250,15.639 12.022,15.583 12.687,15.510 C14.201,15.344 15.202,14.412 15.441,12.907 C15.688,11.394 15.688,5.877 15.547,4.461 ZM13.209,5.055 C12.636,5.048 12.184,4.585 12.188,4.019 C12.192,3.450 12.651,2.990 13.219,2.990 L13.231,2.990 C13.798,2.990 14.257,3.453 14.252,4.026 C14.248,4.592 13.782,5.055 13.209,5.055 ZM8.563,13.010 C6.125,13.010 4.172,11.035 4.191,8.597 C4.210,6.160 6.200,4.184 8.637,4.191 C11.068,4.191 13.028,6.167 13.009,8.604 C12.991,11.035 11.000,13.010 8.563,13.010 ZM8.646,5.745 L8.620,5.745 C7.057,5.745 5.771,7.004 5.744,8.570 C5.719,10.144 6.973,11.436 8.547,11.449 L8.573,11.449 C10.135,11.449 11.423,10.191 11.449,8.625 C11.474,7.043 10.220,5.759 8.646,5.745 Z"/>
    </symbol>

    <symbol id="google" viewBox="0 0 18 18" width="18" height="18">
        <path d="M22.691,5.835 L22.691,5.904 L22.677,7.720 L22.676,7.796 L22.601,7.796 L20.170,7.796 L20.152,10.227 L20.151,10.296 L20.082,10.296 L18.259,10.296 L18.190,10.296 L18.190,10.227 L18.209,7.796 L15.778,7.796 L15.702,7.796 L15.703,7.720 L15.717,5.904 L15.717,5.835 L15.793,5.835 L18.224,5.835 L18.242,3.397 L18.243,3.328 L18.312,3.328 L20.135,3.328 L20.204,3.328 L20.203,3.397 L20.185,5.835 L22.616,5.835 L22.691,5.835 ZM9.107,14.115 C8.469,14.280 7.821,14.361 7.168,14.361 C7.029,14.361 6.890,14.357 6.751,14.350 C5.342,14.267 4.062,13.825 2.928,12.989 C1.466,11.912 0.545,10.475 0.158,8.701 C0.017,8.058 -0.033,7.416 0.020,6.767 C0.122,5.234 0.657,3.860 1.640,2.665 C2.658,1.415 3.955,0.600 5.505,0.207 C5.899,0.103 6.294,0.041 6.695,0.021 C6.922,0.013 7.150,-0.000 7.378,-0.000 C8.593,0.013 9.731,0.318 10.776,0.932 C11.477,1.333 11.874,1.740 12.045,1.864 C11.329,2.569 10.641,3.259 9.938,3.950 C9.416,3.500 8.839,3.087 7.839,2.934 C7.632,2.905 7.427,2.890 7.226,2.890 C5.219,2.890 3.538,4.341 3.090,6.243 C2.983,6.670 2.953,7.106 2.990,7.541 C3.143,9.309 4.326,10.759 5.925,11.277 C6.332,11.405 6.754,11.466 7.179,11.466 C7.278,11.466 7.377,11.463 7.477,11.457 C8.230,11.408 8.935,11.208 9.575,10.786 C10.650,10.054 10.998,8.908 11.000,8.625 L7.154,8.625 C7.154,8.530 7.168,6.733 7.175,5.855 L7.182,5.738 L13.936,5.738 C14.300,7.845 13.972,10.061 12.661,11.794 C11.754,12.989 10.547,13.742 9.107,14.115 Z"/>
    </symbol>

    <symbol id="arrow-join" viewBox="0 0 15 11" width="15" height="11" fill="#fff">
        <path d="M8.931,11.007 C9.084,11.007 9.236,10.955 9.356,10.846 L14.790,5.934 C14.797,5.929 14.803,5.923 14.809,5.917 C14.820,5.906 14.830,5.896 14.840,5.885 L14.840,5.884 L14.841,5.884 C14.930,5.784 14.977,5.663 14.985,5.540 C14.988,5.496 14.986,5.453 14.979,5.410 C14.961,5.299 14.908,5.192 14.824,5.103 C14.813,5.092 14.802,5.082 14.791,5.072 L9.356,0.160 C9.109,-0.064 8.717,-0.055 8.482,0.182 C8.247,0.419 8.258,0.792 8.506,1.016 L12.817,4.913 L0.631,4.913 C0.290,4.913 0.014,5.177 0.014,5.503 C0.014,5.828 0.290,6.092 0.631,6.092 L12.817,6.092 L8.506,9.990 C8.258,10.213 8.247,10.587 8.482,10.824 C8.604,10.946 8.767,11.007 8.931,11.007 Z"/>
    </symbol>

    <symbol id="calendar" viewBox="0 0 15 15" width="15" height="15">
        <path d="M 4.476562 4.617188 C 4.214844 4.617188 4.007812 4.394531 4.007812 4.132812 L 4.007812 2.34375 C 4.007812 2.070312 4.226562 1.855469 4.476562 1.855469 C 4.742188 1.855469 4.945312 2.082031 4.945312 2.34375 L 4.945312 4.117188 C 4.945312 4.394531 4.742188 4.617188 4.476562 4.617188 Z M 10.203125 4.617188 C 9.9375 4.617188 9.722656 4.394531 9.722656 4.132812 L 9.722656 2.34375 C 9.722656 2.070312 9.9375 1.855469 10.203125 1.855469 C 10.464844 1.855469 10.671875 2.082031 10.671875 2.34375 L 10.671875 4.117188 C 10.671875 4.394531 10.464844 4.617188 10.203125 4.617188 Z M 11.851562 12.273438 L 11.851562 5.679688 L 2.738281 5.679688 L 2.738281 12.273438 Z M 1.179688 3.953125 C 1.179688 3.296875 1.683594 2.773438 2.3125 2.773438 L 3.835938 2.773438 L 3.835938 3.296875 C 3.640625 3.476562 3.515625 3.75 3.515625 4.035156 C 3.515625 4.582031 3.9375 5.023438 4.464844 5.023438 C 4.992188 5.023438 5.417969 4.582031 5.417969 4.035156 C 5.417969 3.738281 5.289062 3.476562 5.09375 3.296875 L 5.09375 2.773438 L 9.550781 2.773438 L 9.550781 3.296875 C 9.355469 3.476562 9.230469 3.75 9.230469 4.035156 C 9.230469 4.582031 9.652344 5.023438 10.179688 5.023438 C 10.707031 5.023438 11.128906 4.582031 11.128906 4.035156 C 11.128906 3.738281 11.003906 3.476562 10.808594 3.296875 L 10.808594 2.773438 L 12.25 2.773438 C 12.882812 2.773438 13.386719 3.296875 13.386719 3.953125 L 13.386719 12.15625 C 13.386719 12.808594 12.882812 13.332031 12.25 13.332031 L 2.289062 13.332031 C 1.660156 13.332031 1.15625 12.808594 1.15625 12.15625 L 1.15625 3.953125 Z M 3.859375 10.214844 L 5.175781 10.214844 L 5.175781 11.582031 L 3.859375 11.582031 Z M 3.859375 8.285156 L 5.175781 8.285156 L 5.175781 9.65625 L 3.859375 9.65625 Z M 5.714844 8.285156 L 7.03125 8.285156 L 7.03125 9.65625 L 5.714844 9.65625 Z M 7.570312 8.285156 L 8.886719 8.285156 L 8.886719 9.65625 L 7.570312 9.65625 Z M 9.421875 8.285156 L 10.742188 8.285156 L 10.742188 9.65625 L 9.421875 9.65625 Z M 9.421875 6.355469 L 10.742188 6.355469 L 10.742188 7.726562 L 9.421875 7.726562 Z M 7.570312 6.355469 L 8.886719 6.355469 L 8.886719 7.726562 L 7.570312 7.726562 Z M 5.714844 6.355469 L 7.03125 6.355469 L 7.03125 7.726562 L 5.714844 7.726562 Z M 5.714844 10.214844 L 7.03125 10.214844 L 7.03125 11.582031 L 5.714844 11.582031 Z M 5.714844 10.214844"/>
    </symbol>

    <symbol id="author" viewBox="0 0 12 15" width="12" height="15">
        <g>
            <path d="M 6 0 C 8.066406 0 9.738281 1.625 9.738281 3.632812 C 9.738281 5.644531 8.066406 7.269531 6 7.269531 C 3.9375 7.269531 2.265625 5.644531 2.265625 3.632812 C 2.265625 1.625 3.9375 0 6 0 Z M 6 0 "/>
            <path d="M 12 15 L 0 15 L 0 13.023438 C 0 10.441406 1.671875 8.253906 4 7.4375 L 6 10.03125 L 8 7.4375 C 10.332031 8.253906 12 10.441406 12 13.023438 Z M 12 15 "/>
        </g>
    </symbol>

    <symbol id="aside-search" viewBox="0 0 17.03 17" width="17.03" height="17">
        <path d="M1529.25,418.92a0.6,0.6,0,0,1-.42-0.174l-5.3-5.3a6.515,6.515,0,1,1,.84-0.839l5.3,5.3a0.6,0.6,0,0,1,0,.839A0.6,0.6,0,0,1,1529.25,418.92Zm-9.9-15.833a5.344,5.344,0,1,0,5.35,5.344A5.351,5.351,0,0,0,1519.35,403.087Z" transform="translate(-1512.81 -401.906)"/>
    </symbol>

    <symbol id="facebook" viewBox="0 0 9 16" width="9" height="16">
        <path d="M6.190,0.125 C6.603,0.125 7.018,0.147 7.430,0.165 C7.698,0.176 7.967,0.215 8.219,0.242 L8.200,2.727 L8.002,2.727 C7.730,2.727 7.457,2.724 7.184,2.724 C6.980,2.724 6.775,2.725 6.571,2.732 C5.912,2.754 5.427,3.001 5.394,3.824 C5.373,4.416 5.358,5.725 5.357,5.793 C5.391,5.793 6.042,5.795 6.697,5.795 C7.024,5.795 7.344,5.795 7.568,5.793 L8.099,5.793 C7.966,6.748 7.844,7.663 7.711,8.585 L5.357,8.585 L5.304,15.556 L2.414,15.556 L2.467,8.574 L0.103,8.574 L0.124,5.798 L2.499,5.798 L2.501,5.590 C2.505,5.031 2.498,4.471 2.519,3.912 C2.527,3.561 2.546,3.199 2.610,2.847 C2.770,1.998 3.164,1.284 3.876,0.774 C4.499,0.330 5.208,0.143 5.960,0.127 C6.036,0.125 6.113,0.125 6.190,0.125 Z"/>
    </symbol>

    <symbol id="twitter" viewBox="0 0 15 13" width="15" height="13">
        <path d="M14.69 2.277c-.105.159-.21.307-.332.45-.311.384-.67.724-1.072 1.015l-.05.093c.013.433-.007.867-.065 1.3-.117.91-.381 1.782-.772 2.611-.412.855-.939 1.629-1.602 2.309-1.128 1.157-2.478 1.904-4.049 2.249-.539.115-1.082.176-1.636.192-.089.002-.177.004-.265.004-1.588 0-3.06-.424-4.416-1.266l-.07-.043c.232.024.461.037.689.037.775 0 1.52-.145 2.248-.438.501-.208.964-.472 1.4-.817-1.519-.049-2.465-1.147-2.711-2.035.182.035.364.052.545.052.237 0 .474-.029.712-.085l.044-.022c-.827-.192-1.46-.631-1.894-1.344-.292-.472-.425-.993-.421-1.558.415.22.842.34 1.303.351-.617-.444-1.029-1.031-1.193-1.777-.165-.746-.05-1.454.334-2.123 1.571 1.871 3.571 2.897 6.021 3.066-.015-.12-.031-.219-.047-.323-.077-.691.071-1.333.448-1.914.472-.735 1.139-1.191 1.996-1.328.182-.03.36-.045.533-.045.768 0 1.446.294 2.028.863.036.032.067.05.108.05.013 0 .028-.002.045-.007.604-.126 1.177-.345 1.711-.652l.038-.022c-.213.68-.64 1.206-1.246 1.596.571-.06 1.11-.214 1.638-.439z"/>
    </symbol>

    <symbol id="reply" viewBox="0 0 14 14" width="14" height="14">
        <path d="M 13.777344 6.457031 L 8.71875 1.398438 C 8.574219 1.253906 8.382812 1.175781 8.179688 1.175781 C 7.972656 1.175781 7.78125 1.253906 7.636719 1.398438 L 7.175781 1.859375 C 7.035156 2.003906 6.953125 2.195312 6.953125 2.402344 C 6.953125 2.605469 7.035156 2.804688 7.175781 2.949219 L 10.128906 5.90625 L 0.757812 5.90625 C 0.332031 5.90625 0 6.234375 0 6.660156 L 0 7.308594 C 0 7.730469 0.332031 8.09375 0.757812 8.09375 L 10.160156 8.09375 L 7.175781 11.066406 C 7.035156 11.210938 6.953125 11.398438 6.953125 11.605469 C 6.953125 11.808594 7.035156 12 7.175781 12.144531 L 7.636719 12.601562 C 7.78125 12.746094 7.972656 12.824219 8.179688 12.824219 C 8.382812 12.824219 8.574219 12.742188 8.71875 12.597656 L 13.777344 7.542969 C 13.921875 7.398438 14 7.207031 14 7 C 14 6.792969 13.921875 6.601562 13.777344 6.457031 Z M 13.777344 6.457031 "/>
    </symbol>

    <symbol id="address" viewBox="0 0 31 44" width="31" height="44">
        <path d="M558.6,655.809l-6.584-2.917-5.674,2.51a1.651,1.651,0,0,1-1.864-.355,1.634,1.634,0,0,1-.313-1.862l4.994-10.516a1.1,1.1,0,1,1,1.972.987l-4.343,9.144,4.32-1.914a2.227,2.227,0,0,1,1.806,0l6.583,2.916h0.011l6.585-2.917a2.223,2.223,0,0,1,1.8,0l4.32,1.914-4.342-9.145a1.093,1.093,0,0,1,.174-1.275,1.107,1.107,0,0,1,1.8.288l4.994,10.518a1.656,1.656,0,0,1-2.176,2.216L567,652.892l-6.594,2.917A2.23,2.23,0,0,1,558.6,655.809Zm-1.947-7.6L547.1,632.283c-0.011-.02-0.023-0.041-0.033-0.062a13.944,13.944,0,1,1,26.39-6.327,13.691,13.691,0,0,1-1.528,6.327l-0.034.062-9.548,15.927A3.326,3.326,0,0,1,556.65,648.21Zm2.683-34.012a11.783,11.783,0,0,0-11.586,11.625,11.521,11.521,0,0,0,1.269,5.366l9.529,15.9a1.114,1.114,0,0,0,1.91,0l9.528-15.9a11.665,11.665,0,0,0-2.231-13.625,11.7,11.7,0,0,0-8.247-3.368Zm-4.884,11.7a5.051,5.051,0,1,1,5.051,5.027A5.044,5.044,0,0,1,554.449,625.894Zm2.206,0a2.845,2.845,0,1,0,2.845-2.83A2.842,2.842,0,0,0,556.655,625.894Z" transform="translate(-544 -612)"/>
    </symbol>

    <symbol id="address" viewBox="0 0 31 44" width="31" height="44">
        <path d="M558.6,655.809l-6.584-2.917-5.674,2.51a1.651,1.651,0,0,1-1.864-.355,1.634,1.634,0,0,1-.313-1.862l4.994-10.516a1.1,1.1,0,1,1,1.972.987l-4.343,9.144,4.32-1.914a2.227,2.227,0,0,1,1.806,0l6.583,2.916h0.011l6.585-2.917a2.223,2.223,0,0,1,1.8,0l4.32,1.914-4.342-9.145a1.093,1.093,0,0,1,.174-1.275,1.107,1.107,0,0,1,1.8.288l4.994,10.518a1.656,1.656,0,0,1-2.176,2.216L567,652.892l-6.594,2.917A2.23,2.23,0,0,1,558.6,655.809Zm-1.947-7.6L547.1,632.283c-0.011-.02-0.023-0.041-0.033-0.062a13.944,13.944,0,1,1,26.39-6.327,13.691,13.691,0,0,1-1.528,6.327l-0.034.062-9.548,15.927A3.326,3.326,0,0,1,556.65,648.21Zm2.683-34.012a11.783,11.783,0,0,0-11.586,11.625,11.521,11.521,0,0,0,1.269,5.366l9.529,15.9a1.114,1.114,0,0,0,1.91,0l9.528-15.9a11.665,11.665,0,0,0-2.231-13.625,11.7,11.7,0,0,0-8.247-3.368Zm-4.884,11.7a5.051,5.051,0,1,1,5.051,5.027A5.044,5.044,0,0,1,554.449,625.894Zm2.206,0a2.845,2.845,0,1,0,2.845-2.83A2.842,2.842,0,0,0,556.655,625.894Z" transform="translate(-544 -612)"/>
    </symbol>

    <symbol id="email" viewBox="0 0 37 33.968" width="37" height="33.968">
        <path d="M942.975,650.918a0.957,0.957,0,0,1-.669-0.272,0.922,0.922,0,0,1-.278-0.659L942,629.786c0-.006,0-0.011,0-0.017a0.927,0.927,0,0,1,.408-0.754l5.322-3.616v-3.838a0.94,0.94,0,0,1,.948-0.932h6.067l5.217-3.546a0.961,0.961,0,0,1,1.079,0l5.185,3.545h6.093a0.94,0.94,0,0,1,.947.932v3.882l5.3,3.621a0.933,0.933,0,0,1,.373.519,0.528,0.528,0,0,1,.034.184L979,649.937a0.941,0.941,0,0,1-.946.933l-35.077.048h0Zm2.773-1.867,29.478-.041-14.712-11.224Zm-1.828-.965,11.443-8.73L943.9,631.563Zm21.72-8.748,11.461,8.744-0.023-16.565Zm-16.014-6.148,7.308,4.968,3-2.288a0.959,0.959,0,0,1,1.148-.008l0.013,0.008,2.977,2.272,7.3-4.993V622.493H949.626v10.7Zm-5.013-3.408,3.118,2.121v-4.241Zm28.654,2.072,3.028-2.071-3.028-2.07v4.141Zm-15.188-11.225h4.828l-2.407-1.645Zm-3.994,12.3a0.933,0.933,0,1,1,0-1.865h12.83a0.933,0.933,0,1,1,0,1.865h-12.83Zm0-4.847a0.932,0.932,0,1,1,0-1.864h12.83a0.932,0.932,0,1,1,0,1.864h-12.83Z" transform="translate(-942 -616.938)"/>
    </symbol>

    <symbol id="phone" viewBox="0 0 37 44" width="37" height="44">
        <path d="M1355.44,650.922a5.06,5.06,0,1,1,5.06,5A5.034,5.034,0,0,1,1355.44,650.922Zm1.97,0a3.085,3.085,0,1,0,3.09-3.045A3.074,3.074,0,0,0,1357.41,650.922Zm11.47-11.336a5.06,5.06,0,1,1,5.06,5A5.033,5.033,0,0,1,1368.88,639.586Zm1.98,0a3.085,3.085,0,1,0,3.08-3.046A3.066,3.066,0,0,0,1370.86,639.586Zm-15.42,0a5.06,5.06,0,1,1,5.06,5A5.033,5.033,0,0,1,1355.44,639.586Zm1.97,0a3.085,3.085,0,1,0,3.09-3.046A3.075,3.075,0,0,0,1357.41,639.586Zm-15.41,0a5.06,5.06,0,1,1,5.06,5A5.033,5.033,0,0,1,1342,639.586Zm1.97,0a3.085,3.085,0,1,0,3.09-3.046A3.075,3.075,0,0,0,1343.97,639.586Zm24.91-11.337a5.06,5.06,0,1,1,5.06,5A5.034,5.034,0,0,1,1368.88,628.249Zm1.98,0a3.085,3.085,0,1,0,3.08-3.045A3.064,3.064,0,0,0,1370.86,628.249Zm-15.42,0a5.06,5.06,0,1,1,5.06,5A5.034,5.034,0,0,1,1355.44,628.249Zm1.97,0a3.085,3.085,0,1,0,3.09-3.045A3.073,3.073,0,0,0,1357.41,628.249Zm-15.41,0a5.06,5.06,0,1,1,5.06,5A5.034,5.034,0,0,1,1342,628.249Zm1.97,0a3.085,3.085,0,1,0,3.09-3.045A3.073,3.073,0,0,0,1343.97,628.249Zm24.91-11.336a5.06,5.06,0,1,1,5.06,5A5.033,5.033,0,0,1,1368.88,616.913Zm1.98,0a3.085,3.085,0,1,0,3.08-3.046A3.066,3.066,0,0,0,1370.86,616.913Zm-15.42,0a5.06,5.06,0,1,1,5.06,5A5.033,5.033,0,0,1,1355.44,616.913Zm1.97,0a3.085,3.085,0,1,0,3.09-3.046A3.075,3.075,0,0,0,1357.41,616.913Zm-15.41,0a5.06,5.06,0,1,1,5.06,5A5.033,5.033,0,0,1,1342,616.913Zm1.97,0a3.085,3.085,0,1,0,3.09-3.046A3.075,3.075,0,0,0,1343.97,616.913Z" transform="translate(-1342 -611.906)"/>
    </symbol>
</svg>