<svg xmlns="http://www.w3.org/2000/svg"><symbol id="arrow" viewBox="0 0 22 9"><path d="M535.3 654.472h16.948l-.1 2.857a.292.292 0 000 .41l.172.172a.28.28 0 00.2.086.285.285 0 00.2-.084l4.193-4.211a.292.292 0 00.087-.202.283.283 0 00-.084-.2l-4.193-4.213a.289.289 0 00-.407 0l-.172.173a.287.287 0 00-.084.2.278.278 0 00.084.2l.113 2.865h-16.965a.3.3 0 00-.292.295v1.37a.292.292 0 00.3.282z" transform="translate(-535 -649)"/></symbol><symbol id="search" viewBox="0 0 15.28 15.281"><path d="M1547.7 72.076a.617.617 0 01.75.485 2.583 2.583 0 00.78 1.489 3.036 3.036 0 001.49.777.636.636 0 01.49.743.649.649 0 01-.72.515 4.21 4.21 0 01-2.14-1.13 4.164 4.164 0 01-1.13-2.136.6.6 0 01.48-.743zm3.28-6.076a6.267 6.267 0 016.28 6.257 6.136 6.136 0 01-.57 2.6l2.34 2.036c1.7 1.746.74 3.266.29 3.717-.42.454-1.99 1.414-3.73-.292l-2.06-2.35A6.261 6.261 0 111550.98 66zm5.55 13.517a1.352 1.352 0 001.88.226 1.313 1.313 0 00-.23-1.874l-2.16-1.88a6.236 6.236 0 01-1.37 1.34zm-5.55-2.312a4.948 4.948 0 10-4.97-4.948 4.963 4.963 0 004.97 4.943z" transform="translate(-1544.72 -66)"/></symbol><symbol id="like" viewBox="0 0 17.87 15.531"><path d="M1648.91 86.245a.731.731 0 01-.28-.056c-.35-.15-8.65-3.749-8.65-10.76a28.181 28.181 0 0013.05-4.707 4.817 4.817 0 014.81 4.684c0 7.034-8.29 10.634-8.65 10.783a.7.7 0 01-.28.056zm-4.11-14.138a3.427 3.427 0 00-3.41 3.346c0 5.407 6.13 8.662 7.52 9.334 1.4-.672 7.52-3.93 7.52-9.358a3.406 3.406 0 00-6.81.024.709.709 0 01-.71.669.694.694 0 01-.7-.669 3.427 3.427 0 00-3.41-3.347z" transform="translate(-1639.97 -70.719)"/></symbol><symbol id="cart" viewBox="0 0 18.94 16.969"><path d="M1721.53 85.978a2.073 2.073 0 110-4.147 2.056 2.056 0 011.46.6 2.03 2.03 0 01.61 1.466 2.071 2.071 0 01-2.07 2.081zm0-2.963a.889.889 0 10.34 1.71.9.9 0 00.55-.824.92.92 0 00-.26-.629.9.9 0 00-.63-.257zm8.39 2.963a2.045 2.045 0 01-1.46-.607 2.068 2.068 0 011.46-3.54 1.953 1.953 0 011.47.6 2.085 2.085 0 01-.67 3.383 2.093 2.093 0 01-.8.164zm0-2.963a.978.978 0 00-.82.548.887.887 0 001.16 1.161.891.891 0 00.29-1.452.9.9 0 00-.63-.257zm-11.27.164a.562.562 0 01-.25-.056.59.59 0 01-.29-.787 3.686 3.686 0 013.05-2.151l-1.05-5.391a.591.591 0 111.16-.228l1.09 5.578h9.43l1.8-6.771h-13.3a4.346 4.346 0 01-4.28-3.693.587.587 0 01.49-.673.6.6 0 01.68.5 3.159 3.159 0 003.11 2.682h14.07a.582.582 0 01.47.232.594.594 0 01.11.513l-2.13 7.956a.59.59 0 01-.57.44h-10.36a.03.03 0 00-.02 0 2.66 2.66 0 00-2.68 1.51.586.586 0 01-.53.338z" transform="translate(-1716 -69)"/></symbol><symbol id="dots" viewBox="0 0 20.03 20.031"><path d="M1813.15 67.881a2.146 2.146 0 112.14-2.145 2.145 2.145 0 01-2.14 2.145zm0 7.869a2.146 2.146 0 112.14-2.147 2.146 2.146 0 01-2.14 2.147zm0 7.868a2.146 2.146 0 112.14-2.146 2.145 2.145 0 01-2.14 2.146zm7.86-15.737a2.146 2.146 0 112.15-2.145 2.143 2.143 0 01-2.15 2.145zm0 7.869a2.146 2.146 0 112.15-2.147 2.144 2.144 0 01-2.15 2.147zm0 7.868a2.146 2.146 0 112.15-2.146 2.143 2.143 0 01-2.15 2.146zm7.87-15.737a2.146 2.146 0 112.15-2.145 2.143 2.143 0 01-2.15 2.145zm0 7.869a2.146 2.146 0 112.15-2.147 2.144 2.144 0 01-2.15 2.147zm0 7.868a2.146 2.146 0 112.15-2.146 2.143 2.143 0 01-2.15 2.146z" transform="translate(-1811 -63.594)"/></symbol><symbol id="card" viewBox="0 0 20 20"><path d="M759.45 1579.8l-4.588-4.59a8.827 8.827 0 01-2.651 2.65l4.588 4.59a1.874 1.874 0 002.651-2.65zm-4.45-9.3a7.5 7.5 0 10-7.5 7.5 7.5 7.5 0 007.5-7.5zm-7.5 5.62a5.625 5.625 0 115.625-5.62 5.628 5.628 0 01-5.625 5.62zm-4.375-5.62h1.25a3.135 3.135 0 013.125-3.13v-1.25a4.386 4.386 0 00-4.375 4.38z" transform="translate(-740 -1563)"/></symbol><symbol id="to-cart" viewBox="0 0 22 20"><path d="M800.814 1564.63h2.333l3.323 12.04a.812.812 0 00.787.59h10.214a.821.821 0 00.746-.48l3.717-8.56a.836.836 0 00-.068-.78.813.813 0 00-.678-.37H809.9a.82.82 0 000 1.64h10.04l-3.011 6.92h-9.062l-3.323-12.03a.808.808 0 00-.787-.6h-2.943a.815.815 0 000 1.63zm5.67 18.37a1.85 1.85 0 10-1.845-1.85 1.85 1.85 0 001.845 1.85zm11.53 0h.135a1.907 1.907 0 10-.135 0z" transform="translate(-800 -1563)"/></symbol><symbol id="to-favorite" viewBox="0 0 22 18"><path d="M882.99 1569.82a6.208 6.208 0 00-1.849-4.1A5.871 5.871 0 00877 1564c-2.311 0-3.948 1.78-4.827 2.74a2.156 2.156 0 01-.156.17l-.083-.09c-.8-.92-2.476-2.82-4.938-2.82a5.873 5.873 0 00-4.139 1.72 6.208 6.208 0 00-1.849 4.1 6.845 6.845 0 001.271 4.34 29.307 29.307 0 004.763 4.75c1.705 1.41 3.95 3.09 4.965 3.09 1.032 0 3.269-1.68 4.965-3.09a29.234 29.234 0 004.746-4.75 6.935 6.935 0 001.272-4.34zm-2.376 3.61a27 27 0 01-4.431 4.42c-2.406 2-3.831 2.79-4.172 2.82-.342-.03-1.77-.83-4.188-2.84a26.78 26.78 0 01-4.437-4.4 5.6 5.6 0 01-1.054-3.54 4.807 4.807 0 014.666-4.57c1.863 0 3.216 1.54 3.943 2.37a1.52 1.52 0 001.059.76 1.731 1.731 0 001.151-.81c.794-.87 2.122-2.32 3.851-2.32a4.807 4.807 0 014.666 4.57 5.528 5.528 0 01-1.054 3.54z" transform="translate(-861 -1564)"/></symbol><symbol id="play-video" viewBox="0 0 127 127"><circle class="cls-1" cx="63.5" cy="63.5" r="63.5" fill="#a3bbc8" opacity=".4"/><circle class="cls-2" cx="63" cy="63" r="49" fill="#a3bbc8"/><path d="M970.684 3900.74l-16.044 9.8a3.228 3.228 0 01-3.062.14 2.685 2.685 0 01-1.579-2.39v-19.59a2.685 2.685 0 011.579-2.39 3.258 3.258 0 013.062.15l16.044 9.79a2.666 2.666 0 011.316 2.25 2.638 2.638 0 01-1.316 2.24z" transform="translate(-897 -3836)" fill="#fff"/></symbol><symbol id="grid" viewBox="0 0 15 15"><path d="M855 613.75h3.75V610H855v3.75zm5.625 11.25h3.75v-3.75h-3.75V625zM855 625h3.75v-3.75H855V625zm0-5.625h3.75v-3.75H855v3.75zm5.625 0h3.75v-3.75h-3.75v3.75zM866.25 610v3.75H870V610h-3.75zm-5.625 3.75h3.75V610h-3.75v3.75zm5.625 5.625H870v-3.75h-3.75v3.75zm0 5.625H870v-3.75h-3.75V625z" transform="translate(-855 -610)"/></symbol><symbol id="list" viewBox="0 0 20 15"><path d="M885.007 610h4.422v4.172h-4.422V610zm5.828 0h14.159v4.172h-14.159V610zm-5.828 5.413h4.422v4.172h-4.422v-4.172zm5.828 0h14.159v4.172h-14.159v-4.172zm-5.828 5.414h4.422V625h-4.422v-4.171zm5.828 0h14.159V625h-14.159v-4.171z" transform="translate(-885 -610)"/></symbol><symbol id="filter" viewBox="0 0 32 32"><path d="M28 9H11a1 1 0 010-2h17a1 1 0 010 2zM7 9H4a1 1 0 010-2h3a1 1 0 010 2zm14 8H4a1 1 0 010-2h17a1 1 0 010 2zm-10 8H4a1 1 0 010-2h7a1 1 0 010 2z"/><path d="M9 11a3 3 0 113-3 3 3 0 01-3 3zm0-4a1 1 0 101 1 1 1 0 00-1-1zm14 12a3 3 0 113-3 3 3 0 01-3 3zm0-4a1 1 0 101 1 1 1 0 00-1-1zM13 27a3 3 0 113-3 3 3 0 01-3 3zm0-4a1 1 0 101 1 1 1 0 00-1-1z"/><path d="M28 17h-3a1 1 0 010-2h3a1 1 0 010 2zm0 8H15a1 1 0 010-2h13a1 1 0 010 2z"/></symbol><symbol id="up" viewBox="0 0 32 32" fill="#414141"><path d="M29.824 7.96a15.942 15.942 0 00-5.816-5.815C21.558.715 18.883 0 15.984 0c-2.902 0-5.574.715-8.023 2.145A15.913 15.913 0 002.145 7.96C.715 10.41 0 13.082 0 15.984c0 2.899.715 5.57 2.145 8.02a15.923 15.923 0 005.816 5.82c2.45 1.426 5.121 2.14 8.023 2.14 2.899 0 5.575-.714 8.024-2.14a15.953 15.953 0 005.816-5.82c1.426-2.445 2.14-5.121 2.14-8.02 0-2.902-.714-5.574-2.14-8.023zm-3.476 8.938l-1.895 1.895a1.281 1.281 0 01-.937.395 1.28 1.28 0 01-.934-.395l-3.934-3.934v10.446c0 .363-.132.675-.398.937a1.264 1.264 0 01-.934.395h-2.664a1.27 1.27 0 01-.937-.395 1.281 1.281 0 01-.395-.937V14.859l-3.933 3.934c-.25.25-.563.375-.938.375s-.687-.125-.937-.375l-1.895-1.895a1.284 1.284 0 01-.37-.937c0-.375.12-.684.37-.934l9.43-9.43c.25-.25.562-.374.937-.374s.688.125.934.375l9.43 9.43c.25.245.375.558.375.933s-.125.687-.375.937zm0 0"/></symbol><symbol id="inst" viewBox="0 0 18 18"><path d="M16.908 13.563c-.533 1.96-1.813 3.12-3.797 3.439-.742.119-2.745.191-4.744.191-2.047 0-4.091-.075-4.779-.254-1.95-.504-3.114-1.774-3.424-3.749-.231-1.451-.255-8.191.164-9.654C.874 1.63 2.147.51 4.075.193c.874-.143 2.583-.194 4.31-.194 1.605 0 3.224.044 4.199.098 1.18.062 2.261.442 3.139 1.284.836.801 1.264 1.802 1.372 2.935.128 1.353.211 7.748-.187 9.247zm-1.361-9.102c-.154-1.513-1.079-2.507-2.575-2.742-.741-.112-2.525-.162-4.3-.162-1.712 0-3.416.047-4.166.128-1.5.172-2.508 1.098-2.747 2.59-.247 1.58-.245 7.492-.06 8.68.191 1.236.889 2.085 2.122 2.43.668.188 2.666.254 4.626.254 1.803 0 3.575-.056 4.24-.129 1.514-.166 2.515-1.098 2.754-2.603.247-1.513.247-7.03.106-8.446zm-2.338.594a1.033 1.033 0 01.01-2.065h.012c.567 0 1.026.463 1.021 1.036a1.042 1.042 0 01-1.043 1.029zM8.563 13.01a4.365 4.365 0 01-4.372-4.413 4.443 4.443 0 014.446-4.406 4.37 4.37 0 014.372 4.413 4.451 4.451 0 01-4.446 4.406zm.083-7.265H8.62A2.881 2.881 0 005.744 8.57a2.827 2.827 0 002.803 2.879h.026a2.88 2.88 0 002.876-2.824 2.824 2.824 0 00-2.803-2.88z"/></symbol><symbol id="google" viewBox="0 0 18 18"><path d="M22.691 5.835v.069l-.014 1.816-.001.076H20.17l-.018 2.431-.001.069H18.19v-.069l.019-2.431h-2.507l.001-.076.014-1.816v-.069h2.507l.018-2.438.001-.069h1.961l-.001.069-.018 2.438h2.506zm-13.584 8.28a7.722 7.722 0 01-2.356.235c-1.409-.083-2.689-.525-3.823-1.361C1.466 11.912.545 10.475.158 8.701A6.498 6.498 0 01.02 6.767a7.048 7.048 0 011.62-4.102A7.123 7.123 0 015.505.207a5.767 5.767 0 011.19-.186C6.922.013 7.15 0 7.378 0a6.743 6.743 0 013.398.932c.701.401 1.098.808 1.269.932-.716.705-1.404 1.395-2.107 2.086-.522-.45-1.099-.863-2.099-1.016a4.423 4.423 0 00-.613-.044c-2.007 0-3.688 1.451-4.136 3.353a3.945 3.945 0 00-.1 1.298c.153 1.768 1.336 3.218 2.935 3.736.407.128.829.189 1.254.189.099 0 .198-.003.298-.009.753-.049 1.458-.249 2.098-.671 1.075-.732 1.423-1.878 1.425-2.161H7.154l.021-2.77.007-.117h6.754c.364 2.107.036 4.323-1.275 6.056-.907 1.195-2.114 1.948-3.554 2.321z"/></symbol><symbol id="arrow-join" viewBox="0 0 15 11" fill="#fff"><path d="M8.931 11.007a.627.627 0 00.425-.161l5.434-4.912a.921.921 0 00.05-.049v-.001h.001a.57.57 0 00-.017-.781l-.033-.031L9.356.16a.639.639 0 00-.874.022.57.57 0 00.024.834l4.311 3.897H.631a.604.604 0 00-.617.59c0 .325.276.589.617.589h12.186L8.506 9.99a.57.57 0 00-.024.834.632.632 0 00.449.183z"/></symbol><symbol id="calendar" viewBox="0 0 15 15"><path d="M4.477 4.617a.479.479 0 01-.47-.484v-1.79c0-.273.22-.488.47-.488a.48.48 0 01.468.489v1.773c0 .278-.203.5-.468.5zm5.726 0a.486.486 0 01-.48-.484v-1.79c0-.273.214-.488.48-.488.262 0 .469.227.469.489v1.773c0 .278-.207.5-.469.5zm1.649 7.656V5.68H2.738v6.593zM1.18 3.953c0-.656.504-1.18 1.133-1.18h1.523v.524c-.195.18-.32.453-.32.738 0 .547.421.988.949.988.527 0 .953-.441.953-.988a1 1 0 00-.324-.738v-.524H9.55v.524c-.196.18-.32.453-.32.738 0 .547.421.988.949.988.527 0 .949-.441.949-.988a.998.998 0 00-.32-.738v-.524h1.441c.633 0 1.137.524 1.137 1.18v8.203c0 .653-.504 1.176-1.137 1.176H2.29c-.63 0-1.134-.523-1.134-1.176V3.953zm2.68 6.262h1.316v1.367H3.859zm0-1.93h1.316v1.371H3.859zm1.855 0H7.03v1.371H5.715zm1.855 0h1.317v1.371H7.57zm1.852 0h1.32v1.371h-1.32zm0-1.93h1.32v1.372h-1.32zm-1.852 0h1.317v1.372H7.57zm-1.855 0H7.03v1.372H5.715zm0 3.86H7.03v1.367H5.715zm0 0"/></symbol><symbol id="author" viewBox="0 0 12 15"><path d="M6 0c2.066 0 3.738 1.625 3.738 3.633C9.738 5.645 8.066 7.27 6 7.27c-2.063 0-3.734-1.625-3.734-3.637C2.266 1.625 3.937 0 6 0zm6 15H0v-1.977c0-2.582 1.672-4.77 4-5.585l2 2.593 2-2.594c2.332.817 4 3.004 4 5.586zm0 0"/></symbol><symbol id="aside-search" viewBox="0 0 17.03 17"><path d="M1529.25 418.92a.6.6 0 01-.42-.174l-5.3-5.3a6.515 6.515 0 11.84-.839l5.3 5.3a.6.6 0 010 .839.6.6 0 01-.42.174zm-9.9-15.833a5.344 5.344 0 105.35 5.344 5.351 5.351 0 00-5.35-5.344z" transform="translate(-1512.81 -401.906)"/></symbol><symbol id="facebook" viewBox="0 0 9 16"><path d="M6.19.125c.413 0 .828.022 1.24.04.268.011.537.05.789.077L8.2 2.727h-.198c-.272 0-.545-.003-.818-.003a17.9 17.9 0 00-.613.008c-.659.022-1.144.269-1.177 1.092-.021.592-.036 1.901-.037 1.969l1.34.002c.327 0 .647 0 .871-.002h.531c-.133.955-.255 1.87-.388 2.792H5.357l-.053 6.971h-2.89l.053-6.982H.103l.021-2.776h2.375l.002-.208c.004-.559-.003-1.119.018-1.678.008-.351.027-.713.091-1.065.16-.849.554-1.563 1.266-2.073C4.499.33 5.208.143 5.96.127c.076-.002.153-.002.23-.002z"/></symbol><symbol id="twitter" viewBox="0 0 15 13"><path d="M14.69 2.277c-.105.159-.21.307-.332.45-.311.384-.67.724-1.072 1.015l-.05.093c.013.433-.007.867-.065 1.3a8.702 8.702 0 01-2.374 4.92 7.904 7.904 0 01-4.049 2.249 9.057 9.057 0 01-1.636.192c-.089.002-.177.004-.265.004a8.219 8.219 0 01-4.416-1.266l-.07-.043c.232.024.461.037.689.037a5.95 5.95 0 002.248-.438 5.825 5.825 0 001.4-.817c-1.519-.049-2.465-1.147-2.711-2.035.182.035.364.052.545.052a3.1 3.1 0 00.712-.085l.044-.022c-.827-.192-1.46-.631-1.894-1.344a2.859 2.859 0 01-.421-1.558c.415.22.842.34 1.303.351-.617-.444-1.029-1.031-1.193-1.777a2.881 2.881 0 01.334-2.123c1.571 1.871 3.571 2.897 6.021 3.066-.015-.12-.031-.219-.047-.323a2.845 2.845 0 01.448-1.914C8.311 1.526 8.978 1.07 9.835.933c.182-.03.36-.045.533-.045.768 0 1.446.294 2.028.863.036.032.067.05.108.05a5.795 5.795 0 001.756-.659l.038-.022c-.213.68-.64 1.206-1.246 1.596a5.654 5.654 0 001.638-.439z"/></symbol><symbol id="reply" viewBox="0 0 14 14"><path d="M13.777 6.457L8.72 1.398a.756.756 0 00-.54-.222.759.759 0 00-.542.222l-.461.461a.775.775 0 000 1.09l2.953 2.957H.758A.745.745 0 000 6.66v.649c0 .421.332.785.758.785h9.402l-2.984 2.972a.766.766 0 000 1.079l.46.457a.76.76 0 001.082-.004l5.06-5.055A.759.759 0 0014 7a.759.759 0 00-.223-.543zm0 0"/></symbol><symbol id="address" viewBox="0 0 31 44"><path d="M558.6 655.809l-6.584-2.917-5.674 2.51a1.651 1.651 0 01-1.864-.355 1.634 1.634 0 01-.313-1.862l4.994-10.516a1.1 1.1 0 111.972.987l-4.343 9.144 4.32-1.914a2.227 2.227 0 011.806 0l6.583 2.916h.011l6.585-2.917a2.223 2.223 0 011.8 0l4.32 1.914-4.342-9.145a1.093 1.093 0 01.174-1.275 1.107 1.107 0 011.8.288l4.994 10.518a1.656 1.656 0 01-2.176 2.216L567 652.892l-6.594 2.917a2.23 2.23 0 01-1.806 0zm-1.947-7.6l-9.553-15.926c-.011-.02-.023-.041-.033-.062a13.944 13.944 0 1126.39-6.327 13.691 13.691 0 01-1.528 6.327l-.034.062-9.548 15.927a3.326 3.326 0 01-5.697 0zm2.683-34.012a11.783 11.783 0 00-11.586 11.625 11.521 11.521 0 001.269 5.366l9.529 15.9a1.114 1.114 0 001.91 0l9.528-15.9a11.665 11.665 0 00-2.231-13.625 11.7 11.7 0 00-8.247-3.368zm-4.884 11.7a5.051 5.051 0 115.051 5.027 5.044 5.044 0 01-5.054-5.03zm2.206 0a2.845 2.845 0 102.845-2.83 2.842 2.842 0 00-2.848 2.827z" transform="translate(-544 -612)"/></symbol><symbol id="address" viewBox="0 0 31 44"><path d="M558.6 655.809l-6.584-2.917-5.674 2.51a1.651 1.651 0 01-1.864-.355 1.634 1.634 0 01-.313-1.862l4.994-10.516a1.1 1.1 0 111.972.987l-4.343 9.144 4.32-1.914a2.227 2.227 0 011.806 0l6.583 2.916h.011l6.585-2.917a2.223 2.223 0 011.8 0l4.32 1.914-4.342-9.145a1.093 1.093 0 01.174-1.275 1.107 1.107 0 011.8.288l4.994 10.518a1.656 1.656 0 01-2.176 2.216L567 652.892l-6.594 2.917a2.23 2.23 0 01-1.806 0zm-1.947-7.6l-9.553-15.926c-.011-.02-.023-.041-.033-.062a13.944 13.944 0 1126.39-6.327 13.691 13.691 0 01-1.528 6.327l-.034.062-9.548 15.927a3.326 3.326 0 01-5.697 0zm2.683-34.012a11.783 11.783 0 00-11.586 11.625 11.521 11.521 0 001.269 5.366l9.529 15.9a1.114 1.114 0 001.91 0l9.528-15.9a11.665 11.665 0 00-2.231-13.625 11.7 11.7 0 00-8.247-3.368zm-4.884 11.7a5.051 5.051 0 115.051 5.027 5.044 5.044 0 01-5.054-5.03zm2.206 0a2.845 2.845 0 102.845-2.83 2.842 2.842 0 00-2.848 2.827z" transform="translate(-544 -612)"/></symbol><symbol id="email" viewBox="0 0 37 33.968"><path d="M942.975 650.918a.957.957 0 01-.669-.272.922.922 0 01-.278-.659L942 629.786v-.017a.927.927 0 01.408-.754l5.322-3.616v-3.838a.94.94 0 01.948-.932h6.067l5.217-3.546a.961.961 0 011.079 0l5.185 3.545h6.093a.94.94 0 01.947.932v3.882l5.3 3.621a.933.933 0 01.373.519.528.528 0 01.034.184l.027 20.171a.941.941 0 01-.946.933l-35.077.048zm2.773-1.867l29.478-.041-14.712-11.224zm-1.828-.965l11.443-8.73-11.463-7.793zm21.72-8.748l11.461 8.744-.023-16.565zm-16.014-6.148l7.308 4.968 3-2.288a.959.959 0 011.148-.008l.013.008 2.977 2.272 7.3-4.993v-10.656h-21.746v10.7zm-5.013-3.408l3.118 2.121v-4.241zm28.654 2.072l3.028-2.071-3.028-2.07v4.141zm-15.188-11.225h4.828l-2.407-1.645zm-3.994 12.3a.933.933 0 110-1.865h12.83a.933.933 0 110 1.865h-12.83zm0-4.847a.932.932 0 110-1.864h12.83a.932.932 0 110 1.864h-12.83z" transform="translate(-942 -616.938)"/></symbol><symbol id="phone" viewBox="0 0 37 44"><path d="M1355.44 650.922a5.06 5.06 0 115.06 5 5.034 5.034 0 01-5.06-5zm1.97 0a3.085 3.085 0 103.09-3.045 3.074 3.074 0 00-3.09 3.045zm11.47-11.336a5.06 5.06 0 115.06 5 5.033 5.033 0 01-5.06-5zm1.98 0a3.085 3.085 0 103.08-3.046 3.066 3.066 0 00-3.08 3.046zm-15.42 0a5.06 5.06 0 115.06 5 5.033 5.033 0 01-5.06-5zm1.97 0a3.085 3.085 0 103.09-3.046 3.075 3.075 0 00-3.09 3.046zm-15.41 0a5.06 5.06 0 115.06 5 5.033 5.033 0 01-5.06-5zm1.97 0a3.085 3.085 0 103.09-3.046 3.075 3.075 0 00-3.09 3.046zm24.91-11.337a5.06 5.06 0 115.06 5 5.034 5.034 0 01-5.06-5zm1.98 0a3.085 3.085 0 103.08-3.045 3.064 3.064 0 00-3.08 3.045zm-15.42 0a5.06 5.06 0 115.06 5 5.034 5.034 0 01-5.06-5zm1.97 0a3.085 3.085 0 103.09-3.045 3.073 3.073 0 00-3.09 3.045zm-15.41 0a5.06 5.06 0 115.06 5 5.034 5.034 0 01-5.06-5zm1.97 0a3.085 3.085 0 103.09-3.045 3.073 3.073 0 00-3.09 3.045zm24.91-11.336a5.06 5.06 0 115.06 5 5.033 5.033 0 01-5.06-5zm1.98 0a3.085 3.085 0 103.08-3.046 3.066 3.066 0 00-3.08 3.046zm-15.42 0a5.06 5.06 0 115.06 5 5.033 5.033 0 01-5.06-5zm1.97 0a3.085 3.085 0 103.09-3.046 3.075 3.075 0 00-3.09 3.046zm-15.41 0a5.06 5.06 0 115.06 5 5.033 5.033 0 01-5.06-5zm1.97 0a3.085 3.085 0 103.09-3.046 3.075 3.075 0 00-3.09 3.046z" transform="translate(-1342 -611.906)"/></symbol></svg>