<?xml version="1.0" encoding="UTF-8"?>
<svg xmlns="http://www.w3.org/2000/svg" xmlns:xlink="http://www.w3.org/1999/xlink" width="32pt" height="32pt" viewBox="0 0 32 32" version="1.1">
<g id="surface1">
<path style=" stroke:none;fill-rule:nonzero;fill:rgb(0%,0%,0%);fill-opacity:1;" d="M 29.824219 7.960938 C 28.394531 5.511719 26.453125 3.574219 24.007812 2.144531 C 21.558594 0.714844 18.882812 0 15.984375 0 C 13.082031 0 10.410156 0.714844 7.960938 2.144531 C 5.511719 3.574219 3.574219 5.511719 2.144531 7.960938 C 0.714844 10.410156 0 13.082031 0 15.984375 C 0 18.882812 0.714844 21.554688 2.144531 24.003906 C 3.574219 26.453125 5.511719 28.394531 7.960938 29.824219 C 10.410156 31.25 13.082031 31.964844 15.984375 31.964844 C 18.882812 31.964844 21.558594 31.25 24.007812 29.824219 C 26.453125 28.394531 28.394531 26.453125 29.824219 24.003906 C 31.25 21.558594 31.964844 18.882812 31.964844 15.984375 C 31.964844 13.082031 31.25 10.410156 29.824219 7.960938 Z M 26.347656 16.898438 L 24.453125 18.792969 C 24.191406 19.054688 23.878906 19.1875 23.515625 19.1875 C 23.15625 19.1875 22.84375 19.054688 22.582031 18.792969 L 18.648438 14.859375 L 18.648438 25.304688 C 18.648438 25.667969 18.515625 25.980469 18.25 26.242188 C 17.988281 26.507812 17.675781 26.636719 17.316406 26.636719 L 14.652344 26.636719 C 14.289062 26.636719 13.976562 26.507812 13.714844 26.242188 C 13.453125 25.980469 13.320312 25.667969 13.320312 25.304688 L 13.320312 14.859375 L 9.386719 18.792969 C 9.136719 19.042969 8.824219 19.167969 8.449219 19.167969 C 8.074219 19.167969 7.761719 19.042969 7.511719 18.792969 L 5.617188 16.898438 C 5.371094 16.648438 5.246094 16.335938 5.246094 15.960938 C 5.246094 15.585938 5.367188 15.277344 5.617188 15.027344 L 15.046875 5.597656 C 15.296875 5.347656 15.609375 5.222656 15.984375 5.222656 C 16.359375 5.222656 16.671875 5.347656 16.917969 5.597656 L 26.347656 15.027344 C 26.597656 15.273438 26.722656 15.585938 26.722656 15.960938 C 26.722656 16.335938 26.597656 16.648438 26.347656 16.898438 Z M 26.347656 16.898438 "/>
</g>
</svg>
