<svg xmlns="http://www.w3.org/2000/svg" width="32pt" height="32pt" viewBox="0 0 32 32"><path d="M29.824 7.96a15.942 15.942 0 00-5.816-5.815C21.558.715 18.883 0 15.984 0c-2.902 0-5.574.715-8.023 2.145A15.913 15.913 0 002.145 7.96C.715 10.41 0 13.082 0 15.984c0 2.899.715 5.57 2.145 8.02a15.923 15.923 0 005.816 5.82c2.45 1.426 5.121 2.14 8.023 2.14 2.899 0 5.575-.714 8.024-2.14a15.953 15.953 0 005.816-5.82c1.426-2.445 2.14-5.121 2.14-8.02 0-2.902-.714-5.574-2.14-8.023zm-3.476 8.938l-1.895 1.895a1.281 1.281 0 01-.937.395 1.28 1.28 0 01-.934-.395l-3.934-3.934v10.446c0 .363-.132.675-.398.937a1.264 1.264 0 01-.934.395h-2.664a1.27 1.27 0 01-.937-.395 1.281 1.281 0 01-.395-.937V14.859l-3.933 3.934c-.25.25-.563.375-.938.375s-.687-.125-.937-.375l-1.895-1.895a1.284 1.284 0 01-.37-.937c0-.375.12-.684.37-.934l9.43-9.43c.25-.25.562-.374.937-.374s.688.125.934.375l9.43 9.43c.25.245.375.558.375.933s-.125.687-.375.937zm0 0" id="surface1"/></svg>