<svg xmlns="http://www.w3.org/2000/svg" width="18" height="13"><path fill-rule="evenodd" fill="#436372" d="M17.624 12.629l-.001.002-.002.002a1.307 1.307 0 01-.907.361H1.286c-.354 0-.674-.138-.907-.362l-.002-.001-.001-.002A1.21 1.21 0 010 11.757V1.858C0 1.176.577.621 1.286.621h15.428c.709 0 1.286.555 1.286 1.237v9.899c0 .34-.144.648-.376.872zM7.536 6.325l-6.073 5.844h15.074l-6.074-5.844-.726.489c-.22.149-.479.223-.737.223-.259 0-.517-.074-.737-.223l-.727-.489zM.863 1.83c-.001.01-.006.018-.006.028v9.728l5.966-5.742L.863 1.83zm.925-.384l6.966 4.692a.445.445 0 00.492 0l6.965-4.692H1.788zm15.355.412c0-.01-.006-.018-.006-.028l-5.96 4.014 5.966 5.742V1.858z"/></svg>