<svg xmlns="http://www.w3.org/2000/svg" width="9" height="16"><path fill-rule="evenodd" fill="#A1A1A1" d="M6.19.125c.413 0 .828.022 1.24.04.268.011.537.05.789.077L8.2 2.727h-.198c-.272 0-.545-.003-.818-.003a17.9 17.9 0 00-.613.008c-.659.022-1.144.269-1.177 1.092-.021.592-.036 1.901-.037 1.969l1.34.002c.327 0 .647 0 .871-.002h.531c-.133.955-.255 1.87-.388 2.792H5.357l-.053 6.971h-2.89l.053-6.982H.103l.021-2.776h2.375l.002-.208c.004-.559-.003-1.119.018-1.678.008-.351.027-.713.091-1.065.16-.849.554-1.563 1.266-2.073C4.499.33 5.208.143 5.96.127c.076-.002.153-.002.23-.002z"/></svg>