<svg xmlns="http://www.w3.org/2000/svg" width="14" height="14"><path fill-rule="evenodd" fill="#436372" d="M13.81 12.755a.42.42 0 01-.428.411H.549a.42.42 0 01-.428-.411c0-2.99 2.097-5.491 4.941-6.29C4.027 5.848 3.33 4.754 3.33 3.499 3.33 1.571 4.961.003 6.966.003c2.004 0 3.636 1.568 3.636 3.496 0 1.255-.697 2.349-1.733 2.966 2.844.799 4.941 3.3 4.941 6.29zM9.746 3.499c0-1.474-1.247-2.673-2.78-2.673-1.533 0-2.781 1.199-2.781 2.673 0 1.475 1.248 2.674 2.781 2.674 1.533 0 2.78-1.199 2.78-2.674zm-2.78 3.497c-3.159 0-5.754 2.363-5.974 5.347h11.947c-.22-2.984-2.815-5.347-5.973-5.347z"/></svg>