<svg xmlns="http://www.w3.org/2000/svg" width="18" height="15"><path fill-rule="evenodd" fill="#436372" d="M16.714 12.518H5.766L3.303 14.88a.441.441 0 01-.467.089.413.413 0 01-.265-.38v-2.071H1.286C.577 12.518 0 11.965 0 11.285V1.424C0 .744.577.191 1.286.191h15.428C17.423.191 18 .744 18 1.424v9.861c0 .68-.577 1.233-1.286 1.233zm.429-11.094a.42.42 0 00-.429-.411H1.286a.42.42 0 00-.429.411v9.861a.42.42 0 00.429.411H3a.42.42 0 01.428.411v1.49l1.857-1.78a.441.441 0 01.303-.121h11.126a.42.42 0 00.429-.411V1.424zm-4.8 5.547a.63.63 0 01-.643-.616.63.63 0 01.643-.617.63.63 0 01.643.617.63.63 0 01-.643.616zM9 6.971a.63.63 0 01-.643-.616A.63.63 0 019 5.738a.63.63 0 01.643.617.63.63 0 01-.643.616zm-3.586 0a.63.63 0 01-.642-.616.63.63 0 01.642-.617.63.63 0 01.643.617.63.63 0 01-.643.616z"/></svg>