<svg xmlns="http://www.w3.org/2000/svg" width="15" height="13">
    <path fill="#A1A1A1" fill-rule="evenodd" d="M14.69 2.277c-.105.159-.21.307-.332.45-.311.384-.67.724-1.072 1.015l-.05.093c.013.433-.007.867-.065 1.3-.117.91-.381 1.782-.772 2.611-.412.855-.939 1.629-1.602 2.309-1.128 1.157-2.478 1.904-4.049 2.249-.539.115-1.082.176-1.636.192-.089.002-.177.004-.265.004-1.588 0-3.06-.424-4.416-1.266l-.07-.043c.232.024.461.037.689.037.775 0 1.52-.145 2.248-.438.501-.208.964-.472 1.4-.817-1.519-.049-2.465-1.147-2.711-2.035.182.035.364.052.545.052.237 0 .474-.029.712-.085l.044-.022c-.827-.192-1.46-.631-1.894-1.344-.292-.472-.425-.993-.421-1.558.415.22.842.34 1.303.351-.617-.444-1.029-1.031-1.193-1.777-.165-.746-.05-1.454.334-2.123 1.571 1.871 3.571 2.897 6.021 3.066-.015-.12-.031-.219-.047-.323-.077-.691.071-1.333.448-1.914.472-.735 1.139-1.191 1.996-1.328.182-.03.36-.045.533-.045.768 0 1.446.294 2.028.863.036.032.067.05.108.05.013 0 .028-.002.045-.007.604-.126 1.177-.345 1.711-.652l.038-.022c-.213.68-.64 1.206-1.246 1.596.571-.06 1.11-.214 1.638-.439z"/>
</svg>
